{
    "asset": {
        "version": "2.0",
        "generator": "Open Asset Import Library (assimp v3.1.243586452)"
    },
    "accessors": [
        {
            "bufferView": 0,
            "byteOffset": 0,
            "componentType": 5126,
            "count": 4,
            "type": "VEC3",
            "max": [
                86.15560150146485,
                22.00779914855957,
                -3.0604000091552736
            ],
            "min": [
                86.14869689941406,
                21.94649887084961,
                -3.0604000091552736
            ]
        },
        {
            "bufferView": 1,
            "byteOffset": 0,
            "componentType": 5126,
            "count": 4,
            "type": "VEC3",
            "max": [
                0.0,
                0.0,
                -1.0
            ],
            "min": [
                0.0,
                0.0,
                -1.0
            ]
        },
        {
            "bufferView": 2,
            "byteOffset": 0,
            "componentType": 5126,
            "count": 4,
            "type": "VEC2",
            "max": [
                0.2549999952316284,
                0.9944999814033508
            ],
            "min": [
                0.2526000142097473,
                0.2964000105857849
            ]
        },
        {
            "bufferView": 3,
            "byteOffset": 0,
            "componentType": 5123,
            "count": 42,
            "type": "SCALAR",
            "max": [
                3.0
            ],
            "min": [
                0.0
            ]
        },
        {
            "bufferView": 4,
            "byteOffset": 0,
            "componentType": 5126,
            "count": 1507,
            "type": "VEC3",
            "max": [
                90.59040069580078,
                25.978900909423829,
                0.8753998279571533
            ],
            "min": [
                71.46150207519531,
                -27.85559844970703,
                -7.120999336242676
            ]
        },
        {
            "bufferView": 5,
            "byteOffset": 0,
            "componentType": 5126,
            "count": 1507,
            "type": "VEC3",
            "max": [
                1.0,
                1.0,
                1.0
            ],
            "min": [
                -0.9998622536659241,
                -1.0,
                -1.0
            ]
        },
        {
            "bufferView": 6,
            "byteOffset": 0,
            "componentType": 5126,
            "count": 1507,
            "type": "VEC2",
            "max": [
                0.9983999729156494,
                0.9994999766349793
            ],
            "min": [
                0.0005000000237487257,
                0.004700005054473877
            ]
        },
        {
            "bufferView": 7,
            "byteOffset": 0,
            "componentType": 5123,
            "count": 5901,
            "type": "SCALAR",
            "max": [
                1506.0
            ],
            "min": [
                0.0
            ]
        },
        {
            "bufferView": 8,
            "byteOffset": 0,
            "componentType": 5126,
            "count": 28,
            "type": "VEC3",
            "max": [
                86.81009674072266,
                -24.841800689697267,
                -1.251400113105774
            ],
            "min": [
                83.0905990600586,
                -27.272199630737306,
                -4.920400142669678
            ]
        },
        {
            "bufferView": 9,
            "byteOffset": 0,
            "componentType": 5126,
            "count": 28,
            "type": "VEC3",
            "max": [
                0.879985511302948,
                0.4751117527484894,
                0.9998760223388672
            ],
            "min": [
                -0.8799865245819092,
                -0.4751119911670685,
                -0.9998803734779358
            ]
        },
        {
            "bufferView": 10,
            "byteOffset": 0,
            "componentType": 5126,
            "count": 28,
            "type": "VEC2",
            "max": [
                0.7649999856948853,
                0.7523999810218811
            ],
            "min": [
                0.6912000179290772,
                0.6786999702453613
            ]
        },
        {
            "bufferView": 11,
            "byteOffset": 0,
            "componentType": 5123,
            "count": 72,
            "type": "SCALAR",
            "max": [
                27.0
            ],
            "min": [
                0.0
            ]
        }
    ],
    "buffers": [
        {
            "byteLength": 61280,
            "uri": "%E6%96%A7%E5%AD%90%E6%9D%90%E8%B4%A8.bin"
        }
    ],
    "bufferViews": [
        {
            "buffer": 0,
            "byteOffset": 0,
            "byteLength": 48,
            "target": 34962
        },
        {
            "buffer": 0,
            "byteOffset": 48,
            "byteLength": 48,
            "target": 34962
        },
        {
            "buffer": 0,
            "byteOffset": 96,
            "byteLength": 32,
            "target": 34962
        },
        {
            "buffer": 0,
            "byteOffset": 128,
            "byteLength": 84,
            "target": 34963
        },
        {
            "buffer": 0,
            "byteOffset": 212,
            "byteLength": 18084,
            "target": 34962
        },
        {
            "buffer": 0,
            "byteOffset": 18296,
            "byteLength": 18084,
            "target": 34962
        },
        {
            "buffer": 0,
            "byteOffset": 36380,
            "byteLength": 12056,
            "target": 34962
        },
        {
            "buffer": 0,
            "byteOffset": 48436,
            "byteLength": 11802,
            "target": 34963
        },
        {
            "buffer": 0,
            "byteOffset": 60240,
            "byteLength": 336,
            "target": 34962
        },
        {
            "buffer": 0,
            "byteOffset": 60576,
            "byteLength": 336,
            "target": 34962
        },
        {
            "buffer": 0,
            "byteOffset": 60912,
            "byteLength": 224,
            "target": 34962
        },
        {
            "buffer": 0,
            "byteOffset": 61136,
            "byteLength": 144,
            "target": 34963
        }
    ],
    "materials": [
        {
            "name": "19___Default",
            "pbrMetallicRoughness": {
                "baseColorFactor": [
                    0.5881999731063843,
                    0.5881999731063843,
                    0.5881999731063843,
                    1.0
                ],
                "metallicFactor": 0.0
            }
        },
        {
            "name": "Material__418",
            "pbrMetallicRoughness": {
                "baseColorFactor": [
                    0.5879999995231628,
                    0.5879999995231628,
                    0.5879999995231628,
                    1.0
                ],
                "metallicFactor": 0.0
            }
        }
    ],
    "meshes": [
        {
            "name": "Cylinder010",
            "primitives": [
                {
                    "mode": 4,
                    "material": 0,
                    "indices": 3,
                    "attributes": {
                        "POSITION": 0,
                        "NORMAL": 1,
                        "TEXCOORD_0": 2
                    }
                }
            ]
        },
        {
            "name": "Line010",
            "primitives": [
                {
                    "mode": 4,
                    "material": 1,
                    "indices": 7,
                    "attributes": {
                        "POSITION": 4,
                        "NORMAL": 5,
                        "TEXCOORD_0": 6
                    }
                }
            ]
        },
        {
            "name": "对象007",
            "primitives": [
                {
                    "mode": 4,
                    "material": 0,
                    "indices": 11,
                    "attributes": {
                        "POSITION": 8,
                        "NORMAL": 9,
                        "TEXCOORD_0": 10
                    }
                }
            ]
        }
    ],
    "nodes": [
        {
            "name": "fuzi_low%20poly_UV.obj",
            "children": [
                1,
                2,
                3,
                4,
                5,
                6
            ]
        },
        {
            "name": "Cylinder010"
        },
        {
            "name": "Cylinder010_node",
            "mesh": 0
        },
        {
            "name": "Line010"
        },
        {
            "name": "Line010_node",
            "mesh": 1
        },
        {
            "name": "对象007"
        },
        {
            "name": "对象007_node",
            "mesh": 2
        }
    ],
    "scenes": [
        {
            "nodes": [
                0
            ]
        }
    ],
    "scene": 0
}